PathFileType	4	(X/Y/Z)	C:\Users\Basilio\Documents\Thesis Gigler\squatting_fais\c3dfiles\076\SJ_pre5\markers_experimental.trc
DataRate	CameraRate	NumFrames	NumMarkers	Units	OrigDataRate	OrigDataStartFrame	OrigNumFrames
200.000000	200.000000	4	61	mm	200.000000	322	1289
Frame#	Time	FHD			LBHD			RBHD			C7			T10			CLAV			LSHO			LUUPA			LMUPA			LDUPA			LLEP			LMEP			LRAD			LUL			LRFIN			RSHO			RUPA1			RMUPA			RDUPA			RLEP			RMEP			RRAD			RUL			RUFIN			LASI			RASI			USACR			LSACR			RSACR			LTHI1			LTHI2			LTHI3			LTHI4			LLFC			LMFC			LTIB1			LTIB2			LTIB3			LTIB4			LLMAL			LMMAL			LHEE			LMT1			LMT2			LMT5			RTHI			RTHI2			RTHI3			RTHI4			RLFC			RMFC			RTIB1			RTIB2			RTIB3			RTIB4			RLMAL			RMMAL			RHEE			RMT1			RMT2			RMT5			
		X1	Y1	Z1	X2	Y2	Z2	X3	Y3	Z3	X4	Y4	Z4	X5	Y5	Z5	X6	Y6	Z6	X7	Y7	Z7	X8	Y8	Z8	X9	Y9	Z9	X10	Y10	Z10	X11	Y11	Z11	X12	Y12	Z12	X13	Y13	Z13	X14	Y14	Z14	X15	Y15	Z15	X16	Y16	Z16	X17	Y17	Z17	X18	Y18	Z18	X19	Y19	Z19	X20	Y20	Z20	X21	Y21	Z21	X22	Y22	Z22	X23	Y23	Z23	X24	Y24	Z24	X25	Y25	Z25	X26	Y26	Z26	X27	Y27	Z27	X28	Y28	Z28	X29	Y29	Z29	X30	Y30	Z30	X31	Y31	Z31	X32	Y32	Z32	X33	Y33	Z33	X34	Y34	Z34	X35	Y35	Z35	X36	Y36	Z36	X37	Y37	Z37	X38	Y38	Z38	X39	Y39	Z39	X40	Y40	Z40	X41	Y41	Z41	X42	Y42	Z42	X43	Y43	Z43	X44	Y44	Z44	X45	Y45	Z45	X46	Y46	Z46	X47	Y47	Z47	X48	Y48	Z48	X49	Y49	Z49	X50	Y50	Z50	X51	Y51	Z51	X52	Y52	Z52	X53	Y53	Z53	X54	Y54	Z54	X55	Y55	Z55	X56	Y56	Z56	X57	Y57	Z57	X58	Y58	Z58	X59	Y59	Z59	X60	Y60	Z60	X61	Y61	Z61	

323	1.61	-10.36847019195557	1371.737426757813	-885.680603027344	-155.6399230957032	1328.545166015625	-990.5476684570315	-149.1985015869141	1331.3828125	-838.1104736328127	-230.1769409179688	1253.0888671875	-919.585632324219	-421.0047912597657	997.2656860351565	-946.0872802734377	-140.4343414306641	1124.557495117188	-911.4285888671877	-163.8847351074219	1173.158081054688	-1084.391357421875	-227.4254760742188	1056.634155273438	-1227.969848632813	-238.9949188232422	1010.734130859375	-1216.3623046875	-256.7267456054688	1012.854370117188	-1274.2626953125	-288.1724243164063	979.6177978515627	-1309.635498046875	-368.3863220214844	1011.083190917969	-1287.272338867188	-393.528289794922	841.042175292969	-1143.94921875	-366.7969055175782	789.5296630859377	-1173.070556640625	-352.4133605957032	831.4211425781252	-1102.140258789063	-196.3999786376954	1170.463134765625	-750.5679931640626	-316.4555664062501	1087.301879882813	-620.3012695312501	-313.9229125976563	1036.37158203125	-619.6267089843751	-360.8535766601563	1045.747314453125	-581.9058227539064	-398.7611389160157	986.1563720703127	-562.3298339843751	-462.5541992187501	1012.905639648438	-619.6575927734376	-434.5114746093751	847.4900512695315	-755.4429321289064	-378.1132202148438	835.1990356445315	-766.5847778320314	-417.0098571777345	796.3326416015627	-714.0328369140626	-333.5712585449219	772.8979492187502	-1043.650390625	-356.5630798339844	767.0233154296876	-837.5611572265627	-477.6342773437501	894.8159179687502	-949.906188964844	-494.115203857422	871.3194580078127	-980.7329101562502	-500.2770996093751	869.1690673828127	-923.5148925781252	-378.8874511718751	669.7124633789064	-1144.292846679688	-309.3867797851563	621.8243408203126	-1149.994750976563	-270.6071166992188	645.8572387695314	-1128.97412109375	-304.2608337402344	560.6203613281251	-1149.638671875	-218.6301422119141	431.583221435547	-1138.659790039063	-203.7501373291016	426.6770324707032	-1025.230590820313	-226.4190063476563	289.0968627929688	-1066.891845703125	-255.9605865478516	242.5716705322266	-1134.686401367188	-235.1598358154297	237.9649353027344	-1094.011352539063	-283.3576354980469	176.0361633300782	-1064.537841796875	-369.6120605468751	78.44117736816408	-1129.545288085938	-353.8862915039063	88.05940246582033	-1043.512329101563	-434.8276367187501	43.48701095581055	-1089.01171875	-226.2347259521485	53.70914840698244	-1055.302001953125	-218.7701568603516	53.60221481323244	-1092.99755859375	-231.6732330322266	43.16806793212891	-1145.554077148438	-351.3377380371094	589.6016235351564	-731.2075805664064	-287.9620666503907	566.3357543945314	-717.8991088867189	-260.3466186523438	586.5920410156251	-726.4558105468751	-266.0464172363282	485.5326232910157	-727.8992919921876	-236.5124053955079	442.0003967285157	-722.5037841796876	-211.0995483398438	437.3169860839845	-829.672790527344	-212.4500885009766	304.5428771972657	-738.2226562500001	-304.9548645019532	250.3424530029297	-712.1309814453126	-262.6440734863282	234.2869567871094	-726.5889892578126	-266.7105407714844	188.5083923339844	-762.7218627929689	-367.2666625976563	77.44219207763673	-729.8278808593751	-347.7409973144532	89.17549896240236	-813.660583496094	-428.444061279297	50.20940017700197	-776.2416992187502	-222.3394165039063	52.21758270263673	-792.6021728515627	-217.5906982421876	56.29905700683595	-747.7144165039064	-243.5987396240235	34.04963302612305	-694.0457763671876	
324	1.615	-9.710148811340334	1368.1533203125	-885.7991333007815	-154.9153747558594	1324.980346679688	-990.647155761719	-148.3559112548828	1327.73974609375	-837.9102783203127	-229.1762237548829	1249.8291015625	-919.6775512695315	-421.0999450683595	994.8716430664065	-946.278259277344	-139.7656402587891	1121.015869140625	-911.4611816406252	-163.1348876953125	1169.719360351563	-1084.495483398438	-226.7342224121094	1053.599365234375	-1227.916381835938	-238.9705047607422	1007.943969726563	-1216.509033203125	-256.5685729980469	1009.938049316406	-1274.32568359375	-287.9992980957032	976.822448730469	-1309.7626953125	-368.1161499023438	1008.728515625	-1287.585815429688	-393.6812438964845	838.9634399414065	-1144.13232421875	-367.1252441406251	787.2764282226565	-1173.143676757813	-352.8323364257813	828.9719848632815	-1102.195068359375	-195.714828491211	1166.959350585938	-750.4657592773439	-316.0957336425782	1084.402587890625	-619.9602050781251	-313.7994995117188	1033.316162109375	-619.6631469726564	-360.6677551269532	1042.905639648438	-582.0498046875001	-398.8611145019532	983.2735595703127	-562.3446044921876	-462.4991149902345	1010.749572753906	-619.7429199218751	-435.2937011718751	845.3188476562502	-755.8383178710939	-379.0207824707032	832.8259277343752	-766.8309326171876	-417.8687438964845	794.0610351562502	-714.2995605468751	-336.8754577636719	769.6466064453127	-1048.126098632813	-358.7812805175782	759.5939941406251	-841.7043457031252	-477.998016357422	893.0369262695315	-950.0816650390627	-494.9623107910157	870.1201782226565	-980.9373168945315	-501.4119567871095	866.7647094726565	-923.786804199219	-379.4663391113282	667.9758911132814	-1144.275024414063	-309.7317504882813	620.8067626953126	-1150.10986328125	-271.4260864257813	645.0993652343751	-1129.009033203125	-303.9914550781251	559.4778442382814	-1149.9658203125	-217.7276306152344	431.0753479003907	-1138.846435546875	-203.1707305908204	426.1496887207032	-1025.410034179688	-225.8317565917969	288.6630249023438	-1066.944213867188	-256.6241149902344	242.2784423828126	-1135.04248046875	-234.7333221435547	237.5381011962891	-1093.932861328125	-283.0835266113282	175.8987884521485	-1064.564697265625	-369.5342407226563	78.50827789306642	-1129.581176757813	-353.7951660156251	88.1311721801758	-1043.462036132813	-434.760223388672	43.47438049316407	-1088.996948242188	-226.2026062011719	53.65917205810548	-1055.3037109375	-218.8951263427735	53.56297683715822	-1093.032104492188	-231.7513732910157	43.20028305053712	-1145.5322265625	-351.7566528320313	588.4492797851564	-731.1564331054689	-288.2740173339844	565.6358032226564	-717.8433227539064	-260.8060302734376	585.9006347656251	-726.2977294921876	-265.5000305175782	485.472869873047	-727.6078491210939	-236.0772705078126	441.7034606933595	-722.2644653320314	-210.7294311523438	437.0447998046876	-829.3873291015627	-212.2026672363282	304.2316284179688	-738.1259765625001	-304.6077575683594	250.1623992919922	-711.9662475585939	-262.3320312500001	234.0599822998047	-726.4425659179689	-266.5471191406251	188.3890228271485	-762.6379394531251	-367.2374267578126	77.43148040771486	-729.7643432617189	-347.7561950683594	89.17481994628908	-813.6457519531252	-428.4295654296876	50.21935272216798	-776.235290527344	-221.380599975586	52.66612243652345	-792.761413574219	-217.8256988525391	56.29606246948244	-747.6730346679689	-243.5470428466797	33.94051361083985	-694.0798950195314	
325	1.62	-8.833699226379396	1364.664794921875	-885.7900390625002	-154.3338470458985	1321.29638671875	-990.4864501953127	-147.5025939941407	1324.041015625	-837.9708251953127	-228.2876129150391	1246.372924804688	-919.7241210937502	-421.0540161132814	992.4117431640627	-946.4591064453127	-139.258544921875	1117.44482421875	-911.554382324219	-162.2263641357422	1166.359741210938	-1084.43359375	-226.2797241210938	1050.633056640625	-1228.131591796875	-238.5587768554688	1004.939025878906	-1216.713500976563	-256.5531311035157	1007.127563476563	-1274.645385742188	-287.8795166015626	974.0830688476565	-1310.013916015625	-367.8094482421876	1006.563110351563	-1287.88916015625	-394.2952880859376	836.741638183594	-1144.2138671875	-368.0929870605469	785.0740356445315	-1173.323852539063	-353.4562072753907	826.682800292969	-1102.322509765625	-195.0192260742188	1163.4482421875	-750.5537719726564	-315.7096557617188	1081.428344726563	-620.0396728515626	-313.5727233886719	1030.3095703125	-619.6680908203126	-360.4609375000001	1039.981201171875	-582.0886230468751	-398.8920288085939	980.499938964844	-562.4006347656251	-462.3807983398439	1008.219970703125	-619.7292480468751	-435.8199768066407	843.1209716796877	-756.0996704101564	-379.9282531738282	830.548767089844	-766.9067993164064	-418.889129638672	791.7043457031252	-714.8656616210939	-337.2908325195313	768.0838012695315	-1045.760009765625	-358.9768981933594	759.5701904296876	-839.838073730469	-478.1024780273439	890.5480957031252	-950.3288574218752	-494.3925170898439	867.198913574219	-981.477233886719	-501.7488708496095	865.2515258789065	-923.7545166015627	-381.2968444824219	666.6660156250001	-1144.827392578125	-310.3258666992188	619.6342773437501	-1150.164428710938	-272.1724243164063	644.2293701171876	-1129.02880859375	-304.7152404785157	558.8920288085939	-1150.151977539063	-217.0267333984376	430.507049560547	-1138.945190429688	-202.5266876220704	425.7017517089845	-1025.566772460938	-224.9752349853516	288.2669677734376	-1066.654296875	-256.1451110839844	241.8597259521485	-1135.078247070313	-234.2769775390626	237.1121520996094	-1093.931762695313	-282.8825683593751	175.8045196533203	-1064.600219726563	-369.4632568359376	78.45003509521486	-1129.599487304688	-353.7868347167969	88.14700317382814	-1043.522338867188	-434.7662048339845	43.51832580566407	-1088.988647460938	-226.200668334961	53.64982986450197	-1055.29833984375	-218.8600769042969	53.48462677001955	-1093.054809570313	-231.722396850586	43.18878555297852	-1145.518432617188	-352.3571166992188	587.2706909179689	-731.0548706054689	-288.5903930664063	564.8638305664064	-717.5610961914064	-261.2177124023438	585.3712158203126	-726.1619873046876	-265.4472656250001	484.5233764648439	-727.4677124023439	-235.6562500000001	441.3171386718751	-722.0405273437501	-210.3627929687501	436.6852416992189	-829.1199340820315	-211.6121215820313	304.1208801269532	-737.7634887695314	-304.3159790039063	250.0518341064454	-711.8414916992189	-262.0542297363282	233.9163055419922	-726.3388671875001	-266.3317565917969	188.2095642089844	-762.5014648437501	-367.2242431640626	77.40528106689455	-729.7528076171876	-347.7063293457032	89.21587371826173	-813.6428222656252	-428.4160461425782	50.18661880493165	-776.269470214844	-221.3700256347657	52.6622657775879	-792.7573852539065	-217.805892944336	56.35042190551759	-747.6124267578126	-243.5575714111329	33.93228912353516	-694.1052246093751	
326	1.625	-8.122722625732424	1361.143676757813	-885.9141235351565	-153.4129486083985	1317.828369140625	-990.376892089844	-146.7635955810547	1320.607543945313	-838.0113525390627	-227.3571166992188	1243.000732421875	-919.6807861328127	-421.1591796875001	989.980163574219	-946.6565551757815	-138.6761779785157	1113.859497070313	-911.6920166015627	-161.3150024414063	1162.936645507813	-1084.391967773438	-225.9813537597657	1047.565551757813	-1228.232666015625	-238.1179962158204	1001.863952636719	-1216.76123046875	-256.0452575683594	1004.305603027344	-1274.781860351563	-287.6655883789063	971.4503173828127	-1310.1552734375	-367.6047973632813	1004.225158691406	-1287.998046875	-394.9625549316407	834.4483032226565	-1144.337890625	-368.8327026367188	782.7750244140627	-1173.44140625	-354.7264099121094	824.435485839844	-1101.828125	-194.356430053711	1159.95361328125	-750.5875244140626	-315.3385314941407	1078.389892578125	-620.0894775390626	-313.4391479492188	1027.265502929688	-619.7800292968751	-360.2140197753907	1037.197998046875	-582.1804199218751	-398.8702392578126	977.9078369140627	-562.5466918945314	-462.2862854003907	1005.880859375	-619.7586669921876	-437.0578613281251	840.6907348632815	-756.4031372070314	-380.7983093261719	828.1826171875002	-767.0292358398439	-419.8646240234376	789.209655761719	-714.9528808593751	-338.7645568847657	764.5527343750001	-1048.692504882813	-360.6034240722657	754.9209594726564	-842.1134033203127	-479.2291870117189	888.8355102539065	-950.3442993164065	-496.5619506835939	866.254089355469	-981.1970825195315	-502.7032470703126	862.9271240234377	-923.9876708984377	-380.9631958007813	664.7411499023439	-1144.55712890625	-310.6242980957032	618.5863647460939	-1150.276123046875	-272.7101745605469	643.1755371093751	-1128.906127929688	-304.9064636230469	557.6912231445314	-1150.80859375	-216.603256225586	430.0273437500001	-1139.093505859375	-201.8798370361329	425.3638916015626	-1025.658813476563	-224.859359741211	288.0435485839844	-1066.957763671875	-255.4768676757813	241.6558074951172	-1135.179931640625	-233.8692626953126	236.6811828613282	-1094.00390625	-282.7349243164063	175.5916595458985	-1064.563720703125	-369.4123535156251	78.40752410888673	-1129.607299804688	-353.7264404296876	88.12466430664064	-1043.507934570313	-434.7872924804689	43.53064346313477	-1089.040649414063	-226.1618194580079	53.67101669311525	-1055.257934570313	-218.9234924316407	53.57020187377931	-1093.0498046875	-231.5923614501954	43.12181091308594	-1145.478637695313	-352.7927246093751	586.0816650390626	-730.8443603515626	-288.8357849121094	564.1096801757814	-717.3708496093751	-261.7442626953126	584.8220825195314	-726.0481567382814	-265.2457275390626	483.9030151367189	-727.2320556640626	-235.3014373779297	440.9652099609376	-721.8589477539064	-209.7962341308594	436.1323547363282	-828.893005371094	-211.2127380371094	303.8397827148438	-737.4959716796876	-304.0530395507813	249.8557739257813	-711.6480712890626	-261.7838745117188	233.7191009521485	-726.2402954101564	-266.1864013671876	188.0383453369141	-762.4432983398439	-367.2311096191407	77.43486785888673	-729.7066650390626	-347.7860717773438	89.20721435546876	-813.582702636719	-428.416717529297	50.23884582519533	-776.2506103515627	-221.4156494140626	52.66793060302736	-792.7857055664065	-217.811264038086	56.34736251831056	-747.6087646484376	-243.551498413086	33.93523025512696	-694.0979003906251	
